<svg xmlns="http://www.w3.org/2000/svg" viewBox="0 0 162.88 129.25"><defs><style>.cls-1{fill:#675d84;}</style></defs><title>Asset 8</title><g id="Layer_2" data-name="Layer 2"><g id="Layer_1-2" data-name="Layer 1"><path class="cls-1" d="M11.1,90.53,0,1H8.6q.65,5.55,1.47,12.68t1.63,14.8q.82,7.67,1.69,15.29T15,57.89q.71,6.53,1.2,11.43t.71,7q.22-2.17.76-7t1.25-11.37q.71-6.53,1.63-14.14t1.85-15.29q.92-7.67,1.8-14.8T25.79,1h8.27L22.2,90.53Z"/><path class="cls-1" d="M37.32,15.23Q37.32,0,51.36,0T65.5,15.23v61q0,15.24-14.15,15.23t-14-15.23Zm19.91,0q0-6.86-5.88-6.86t-5.77,6.86v61q0,7.07,5.77,7.07t5.88-7.07Z"/><path class="cls-1" d="M94.55,90.53Q93.25,86,91.78,80T89,68.33q-1.36-5.66-2.34-10.23t-1.31-6.42Q85,53.53,84,58.1T81.71,68.33Q80.41,74,78.94,79.92T76.17,90.53H67.68L80.74,42.76,69.64,1h8.81q1,3.59,2.12,8.38t2.12,9.41l1.8,8.49q.82,3.86,1.14,5.82.33-2,1.14-5.82t1.85-8.49q1-4.62,2.18-9.41T92.92,1h8.6L90.2,42.54l13.27,48Z"/><path class="cls-1" d="M108,90.53V1h23.72V9.36H116.31V40.8H127.2v8.27H116.31V82.37h16v8.16Z"/><path class="cls-1" d="M138.62,90.53V1h8.27V82.37h16v8.16Z"/><path class="cls-1" d="M20.34,121.65a5,5,0,0,0-2.14-4.21,27.1,27.1,0,0,0-7.3-3.29,26.75,26.75,0,0,1-7.57-3.32,6,6,0,0,1-2.43-5.2,6.6,6.6,0,0,1,2.85-5.55A11.81,11.81,0,0,1,11,98a11,11,0,0,1,7.32,2.34A7.88,7.88,0,0,1,21,106.83l0,.13H20a7.23,7.23,0,0,0-2.51-5.64A9.4,9.4,0,0,0,11,99.08,10.2,10.2,0,0,0,4.44,101,5.71,5.71,0,0,0,2,105.58a5.31,5.31,0,0,0,2,4.27q2,1.64,7.28,3.21A29.56,29.56,0,0,1,19,116.44a5.88,5.88,0,0,1,2.53,5.16,6.47,6.47,0,0,1-3,5.56,12.55,12.55,0,0,1-7.38,2.09,14.16,14.16,0,0,1-7.88-2.14q-3.3-2.14-3.2-6.74l0-.13H1a6.51,6.51,0,0,0,3.05,6,13.2,13.2,0,0,0,7,1.87,11.15,11.15,0,0,0,6.6-1.85A5.5,5.5,0,0,0,20.34,121.65Z"/><path class="cls-1" d="M25.56,117.07a11.93,11.93,0,0,1,2.75-8.13,9,9,0,0,1,7.14-3.16,9,9,0,0,1,7.16,3.16,11.93,11.93,0,0,1,2.75,8.13v.88a12,12,0,0,1-2.75,8.15,9,9,0,0,1-7.11,3.16,9.07,9.07,0,0,1-7.17-3.16,11.93,11.93,0,0,1-2.76-8.15Zm1.13.88a11.14,11.14,0,0,0,2.38,7.22,7.81,7.81,0,0,0,6.41,3,7.73,7.73,0,0,0,6.35-3,11.15,11.15,0,0,0,2.38-7.21v-.88a11.09,11.09,0,0,0-2.4-7.16,7.76,7.76,0,0,0-6.37-3,7.72,7.72,0,0,0-6.37,3,11.15,11.15,0,0,0-2.38,7.16Z"/><path class="cls-1" d="M52.48,128.81V107.35H48.55v-1.15h3.93v-3.72a7.22,7.22,0,0,1,1.56-5,5.52,5.52,0,0,1,4.36-1.76,11.19,11.19,0,0,1,1.37.08,7.9,7.9,0,0,1,1.31.27l-.17,1.09A11.88,11.88,0,0,0,59.72,97a9.54,9.54,0,0,0-1.31-.07,4.41,4.41,0,0,0-3.53,1.48,6.08,6.08,0,0,0-1.27,4.1v3.72h6v1.15h-6v21.46Z"/><path class="cls-1" d="M66.58,100.1v6.1h5.56v1.15H66.58V123a6.44,6.44,0,0,0,.94,4A3,3,0,0,0,70,128.12q.56,0,1,0l1.21-.15.21,1a5.58,5.58,0,0,1-1.09.23,11.64,11.64,0,0,1-1.27.06,4.16,4.16,0,0,1-3.46-1.48q-1.18-1.48-1.18-4.79V107.35H61.25v-1.15h4.18v-6.1Z"/><path class="cls-1" d="M81.52,122.27l1.17,4.64.13,0,1.48-4.66,5.08-16.07h1.15l5.06,16.07L97,126.93l.13,0,1.21-4.64,4.6-16.07h1.32l-6.58,22.61H96.59l-5.66-17L90,108.32h-.13l-1,3.51-5.58,17H82.17l-6.56-22.61h1.3Z"/><path class="cls-1" d="M124,124.64a8.82,8.82,0,0,1-3.49,3.33,11.44,11.44,0,0,1-5.62,1.29,6.86,6.86,0,0,1-5-1.72,6.14,6.14,0,0,1-1.8-4.65,5.7,5.7,0,0,1,2.69-4.76,11.25,11.25,0,0,1,6.72-1.92H124v-3.3a5.53,5.53,0,0,0-1.81-4.4,7.49,7.49,0,0,0-5.09-1.58,7.72,7.72,0,0,0-4.94,1.48,4.66,4.66,0,0,0-1.87,3.82l-.94,0,0-.1a5.27,5.27,0,0,1,2-4.46,8.63,8.63,0,0,1,5.75-1.83,8.78,8.78,0,0,1,5.83,1.84,6.53,6.53,0,0,1,2.19,5.31v11.33a19.34,19.34,0,0,0,.14,2.32,14.61,14.61,0,0,0,.45,2.24H124.5q-.27-1.48-.37-2.23A12.74,12.74,0,0,1,124,125Zm-9.11,3.51a10.39,10.39,0,0,0,5.69-1.48,8.61,8.61,0,0,0,3.42-4.24v-5.08h-6.39a10.39,10.39,0,0,0-5.92,1.62,4.73,4.73,0,0,0-2.41,4,4.91,4.91,0,0,0,1.54,3.73A5.7,5.7,0,0,0,114.93,128.15Z"/><path class="cls-1" d="M142.41,107l-1.46-.13a6.54,6.54,0,0,0-4.92,2,9.59,9.59,0,0,0-2.46,5.15v14.81h-1.13V106.21h.92l.21,3.93v.77a8.16,8.16,0,0,1,2.8-3.77,7.59,7.59,0,0,1,4.58-1.35,5,5,0,0,1,.89.07q.41.07.7.16Z"/><path class="cls-1" d="M154.29,129.25a8.67,8.67,0,0,1-6.74-3.09,11.3,11.3,0,0,1-2.75-7.79V117a11.93,11.93,0,0,1,2.73-8.08,8.68,8.68,0,0,1,6.86-3.17,7.68,7.68,0,0,1,6,2.48,9.71,9.71,0,0,1,2.24,6.76v1.73h-16.7v1.61a10.49,10.49,0,0,0,2.34,6.95,7.48,7.48,0,0,0,6,2.81,10.35,10.35,0,0,0,3.9-.75,8.34,8.34,0,0,0,3-2l.61.88a9.11,9.11,0,0,1-3.07,2.16A10.83,10.83,0,0,1,154.29,129.25Zm.1-22.34a7.48,7.48,0,0,0-5.76,2.43,9.93,9.93,0,0,0-2.54,6.15l.06.13H161.5v-.69a8.65,8.65,0,0,0-1.9-5.76A6.43,6.43,0,0,0,154.4,106.92Z"/></g></g></svg>